Coordinates
version=1
nRows=13
nColumns=36
inDegrees=yes

Units are S.I. units (second, meters, Newtons, ...)
If the header above contains a line with 'inDegrees', this indicates whether rotational values are in degrees (yes) or radians (no).

endheader
time	pelvis_tilt	pelvis_list	pelvis_rotation	pelvis_tx	pelvis_ty	pelvis_tz	hip_flexion_r	hip_adduction_r	hip_rotation_r	knee_angle_r	knee_angle_r_beta	ankle_angle_r	subtalar_angle_r	mtp_angle_r	hip_flexion_l	hip_adduction_l	hip_rotation_l	knee_angle_l	knee_angle_l_beta	ankle_angle_l	subtalar_angle_l	mtp_angle_l	lumbar_extension	lumbar_bending	lumbar_rotation	arm_flex_r	arm_add_r	arm_rot_r	elbow_flex_r	pro_sup_r	arm_flex_l	arm_add_l	arm_rot_l	elbow_flex_l	pro_sup_l
      0.00000000	      4.56846259	     -6.29985900	      0.34212174	      0.73726692	      0.91621305	      0.19590041	     34.02692023	      2.66203366	      4.82863426	      4.53449517	      0.07914187	     -1.91070840	    -12.10378680	     -6.94306664	     -0.91311246	     -1.04418333	     -6.99398241	     15.57620430	      0.27185605	     10.72079936	     -4.33676164	     -6.94306664	    -15.44247057	     -0.64541338	     -0.43682983	     33.17343060	      9.33316556	     54.25871956	    124.98207257	     87.15960420	     26.62386081	     -1.13212741	     70.91347890	    129.23297307	     89.10292206
      0.01666670	      3.73024572	     -6.16839313	      0.98010704	      0.73996123	      0.90484746	      0.19972000	     37.34009552	      2.47234688	      3.84865004	      5.95862126	      0.10399756	      7.91585997	      0.57351246	     -7.08319356	      2.29533449	     -1.91239864	    -10.82992996	     21.31010298	      0.37193146	     14.88028909	     -7.07433517	     -7.08319356	    -13.93048121	     -2.22845701	      2.13205157	     33.95304780	      5.93129450	     60.43519166	    132.59454424	    100.82500828	     30.59010817	      0.62138959	     69.75657017	    131.52895698	    105.74707752
      0.03333330	      3.13827161	     -6.88119879	      0.83734355	      0.74586972	      0.89409368	      0.20456678	     39.81153297	      3.42010385	      2.47788242	      8.56134354	      0.14942363	     11.03300887	      1.27512147	     -7.19358882	      5.23094132	     -3.05229772	    -12.17538213	     26.77701721	      0.46734711	     19.69894904	     -9.19998636	     -7.19358882	    -11.84484188	     -1.55741833	      1.40272507	     33.69771964	      8.09238494	     58.16153809	    131.64840653	    102.61285884	     30.87762858	      0.68910403	     68.06083341	    131.85092162	    108.24753504
      0.05000000	      3.29851307	     -7.04156116	      2.42994921	      0.74348019	      0.89146604	      0.20278005	     41.04798411	      2.50167061	      0.61437058	     11.34500806	      0.19800774	     12.57783398	      1.05594864	     -7.30325401	      7.11205624	     -2.98769814	    -10.34265575	     30.06801384	      0.52478584	     23.33708039	     -6.70199863	     -7.30325401	    -11.39314598	     -1.46449961	     -0.68977984	     34.14555045	      9.00943638	     56.26158147	    129.96795473	    102.81861832	     31.80679447	      0.60217897	     66.72745671	    131.53974642	    107.34417053
      0.06666670	      3.19438902	     -5.86441234	      3.47816744	      0.73796873	      0.89050629	      0.20039617	     42.70993418	      0.75842644	     -0.25904691	     14.20816356	      0.24797923	     12.01559319	      1.47362961	     -7.33265541	      8.88309110	     -1.26241953	     -8.66148449	     32.45406632	      0.56643031	     24.41927499	     -6.04207867	     -7.33265541	    -11.60512703	     -2.89625272	     -2.23137021	     34.57601774	      9.71676066	     55.40992862	    128.97758616	    100.95894151	     32.99212477	      0.06013159	     66.63756142	    131.97209335	    105.74623600
      0.08333330	      3.65567000	     -4.83154653	      3.84879865	      0.74106131	      0.88977183	      0.20380486	     43.46233448	     -0.34653272	     -0.22734291	     16.40615040	      0.28634134	     10.37034662	      1.29459636	     -7.33582028	      9.71558912	      0.16765209	     -7.74241897	     34.60517828	      0.60397430	     25.26588772	     -5.61304180	     -7.33582028	    -12.49690709	     -4.26062256	     -2.99590287	     35.12372247	     10.33309607	     54.67280593	    128.47556529	    101.13513606	     33.98733778	     -0.65435777	     67.51042787	    133.16822953	    105.45506698
      0.10000000	      3.04388302	     -3.41870976	      4.02283734	      0.74061273	      0.88446816	      0.20541017	     45.25793725	     -1.53862151	      0.88480980	     18.05333431	      0.31509012	      8.38277946	      0.38275135	     -7.36296955	     11.55738290	      1.89118821	     -7.28509119	     36.65818079	      0.63980595	     25.92289082	     -5.36394853	     -7.36296955	    -12.07386693	     -6.02810698	     -3.63036671	     35.01930545	     11.12306296	     54.49563736	    127.84588089	     97.95269332	     34.64940895	     -1.38542514	     69.38646689	    135.11180065	    101.03200689
      0.11666670	      3.09862121	     -2.46204796	      4.12318464	      0.74384233	      0.88354001	      0.20893417	     45.77582783	     -2.15619749	      1.94010250	     18.76699074	      0.32754578	      6.55893757	     -0.56664924	     -7.36633720	     12.39405346	      2.90730284	     -7.05743636	     38.30507322	      0.66854965	     26.51673858	     -5.03720783	     -7.36633720	    -12.32485838	     -7.23190854	     -3.73498020	     34.67967704	     11.54785018	     54.18848151	    128.05835216	     98.56209831	     35.08868556	     -1.86926333	     70.40587471	    136.63028203	    100.71646501
      0.13333330	      2.93223695	     -1.46004331	      4.19590975	      0.74858108	      0.88464413	      0.21293319	     45.97969774	     -2.71379954	      3.12827116	     18.62955031	      0.32514699	      4.64610207	     -1.50025755	     -7.37278361	     12.91194889	      3.87902074	     -7.00686370	     39.19549878	      0.68409051	     26.90649810	     -4.98664354	     -7.37278361	    -12.29443985	     -8.58602572	     -3.42417154	     33.29082430	     11.79933111	     54.47049876	    127.22504601	     99.63311112	     34.97465923	     -2.79378900	     70.95497426	    136.52329564	     99.73349189
      0.15000000	      2.87174088	     -0.56735772	      4.45583840	      0.74708703	      0.88205461	      0.21382764	     46.15819869	     -3.40783459	      3.92143131	     18.65980235	      0.32567499	      3.33244642	     -1.79802235	     -7.39525542	     13.35306239	      4.78930688	     -6.67767210	     40.03023945	      0.69865948	     27.12598244	     -4.89775032	     -7.39525542	    -12.57402639	     -9.73668666	     -3.29595736	     32.40964190	     11.70592511	     54.79903694	    126.29165865	     98.39782104	     35.55734773	     -3.74267604	     72.35989171	    136.48889686	     95.99081285
      0.16666670	      2.71998911	      0.16283851	      4.67979116	      0.74151207	      0.87612259	      0.21189862	     46.57483221	     -4.01929878	      4.72126441	     18.90884897	      0.33002167	      2.30816448	     -1.98775958	     -7.42540233	     14.35004052	      5.54440216	     -6.36618728	     41.33096612	      0.72136144	     26.93604381	     -5.26232157	     -7.42540233	    -12.64834027	    -10.59237224	     -2.83204134	     32.26830088	     11.61524750	     54.13490467	    126.19900319	    103.58836246	     36.25962454	     -3.74952186	     72.10254728	    135.58418414	     91.89972543
      0.18333330	      2.49014742	      1.12813503	      4.98737366	      0.74054782	      0.87551684	      0.21262412	     47.14300900	     -5.00666176	      5.27189822	     19.16107947	      0.33442392	      1.31140893	     -1.84525092	     -7.43654988	     15.29467798	      6.62118431	     -6.10150081	     42.46823011	      0.74121044	     26.71160164	     -5.92648867	     -7.43654988	    -12.75210061	    -11.60566299	     -2.57576955	     32.48965065	     11.41860477	     54.34939355	    126.04248535	    101.32579662	     36.54354131	     -4.30009988	     71.61188540	    134.82760093	     89.35850991
      0.20000000	      2.41954674	      1.77286112	      5.26877640	      0.74030015	      0.86586464	      0.21313922	     47.49632916	     -5.72208118	      5.84534450	     19.38739831	      0.33837393	      0.62751727	     -2.23454887	     -7.43957990	     16.21053839	      7.36553214	     -5.82536453	     43.85908137	      0.76548538	     26.96110241	     -6.42542629	     -7.43957990	    -12.90318476	    -12.25173410	     -2.16192261	     32.93700797	     11.53439237	     53.43558146	    126.21473393	    101.46481923	     37.23075125	     -4.03088175	     71.69057023	    134.75820605	     89.31642199
